# xmcd CD database file
#
# Track frame offsets:
#	187
#	16485
#	34922
#	48387
#	70262
#	92017
#	110782
#	130415
#	148850
#
# Disc length: 2277 seconds
#
# Revision: 0
# Processed by: cddbd v1.5.1PL0 Copyright (c) Steve Scherf et al.
# Submitted via: CDex 1.51
#
DISCID=8508e309
DTITLE=やしきたかじん - ICHIZU
DYEAR=90
DGENRE=New Age
TTITLE0=Guilty
TTITLE1=黄昏のSolitude
TTITLE2=It's Crazy Love
TTITLE3=ICHIZU
TTITLE4=決心
TTITLE5=摩天楼物語
TTITLE6=思い出　オン・ザ・ロック
TTITLE7=未練〜STILL~
TTITLE8=歌って死ねるなら
EXTD=YEAR: 90
EXTT0=
EXTT1=
EXTT2=
EXTT3=
EXTT4=
EXTT5=
EXTT6=
EXTT7=
EXTT8=
PLAYORDER=
